<?xml version="1.0" encoding="UTF-8"?>
<svg width="64px" height="71px" viewBox="0 0 64 71" version="1.1" xmlns="http://www.w3.org/2000/svg" xmlns:xlink="http://www.w3.org/1999/xlink">
    <!-- Generator: Sketch 59.1 (86144) - https://sketch.com -->
    <title>icon_legal</title>
    <desc>Created with Sketch.</desc>
    <g id="Page-1" stroke="none" stroke-width="1" fill="none" fill-rule="evenodd">
        <g id="home_5-copy" transform="translate(-1020.000000, -1213.000000)">
            <g id="icon_legal" transform="translate(1020.000000, 1213.000000)">
                <path d="M1.83171352,53.8215217 C-3.677361,43.0573642 4.82892132,34.7578627 6.59017706,24.9001433 C7.32303099,20.798372 5.22385497,16.6727734 0.292648992,12.5233477 L13.0401609,2.13732834 C16.5583281,3.4437069 19.6728762,3.88696989 22.383805,3.46711731 C25.0947338,3.04726473 28.3033979,1.89321708 32,9.9475983e-14 C35.6966021,1.89321708 38.9003675,3.04726473 41.6112963,3.46711731 C44.3222252,3.88696989 47.4367732,3.4437069 50.9549404,2.13732834 L63.7024523,12.5233477 C58.7712464,16.6727734 56.6720703,20.798372 57.4049243,24.9001433 C59.16618,34.7578627 67.6724623,43.0573642 62.1633878,53.8215217 C58.1594662,61.6447673 48.1050036,67.3719856 32,71.0031764 C15.8900978,67.3719856 5.83563516,61.6447673 1.83171352,53.8215217 Z" id="Path-4" fill="#631A72"></path>
                <rect id="Rectangle" fill="#DF9CEE" x="26" y="49" width="12" height="2" rx="1"></rect>
                <rect id="Rectangle" fill="#DF9CEE" x="26" y="53" width="12" height="2" rx="1"></rect>
                <path d="M6.54317725,50.9825295 C1.89453981,41.8864654 9.50828364,36.0923236 10.9944569,27.7622292 C11.6128498,24.2960986 10.7042008,16.728501 6.54317725,13.222101 L14.0086471,6.7060059 C16.9773279,7.80993839 21.5978105,8.78620455 23.8853318,8.43141543 C26.1728531,8.07662631 28.8803707,7.1014184 31.9996174,5.50158822 C35.1188642,7.1014184 37.8222482,8.07662631 40.1097695,8.43141543 C42.3972908,8.78620455 47.077732,7.80993839 50.0464128,6.7060059 L57.4519241,13.222101 C53.2909005,16.728501 52.5798438,24.2960986 53.1982367,27.7622292 C54.6844099,36.0923236 62.1005615,41.8864654 57.4519241,50.9825295 C54.0733566,57.5934273 45.5892544,62.4331135 31.9996174,65.5015882 C18.4058469,62.4331135 9.92174474,57.5934273 6.54317725,50.9825295 Z" id="Path-4" stroke="#FFFFFF" stroke-width="2" opacity="0.709519159"></path>
                <polygon id="Path-5" fill="#FFFFFF" points="32.2295654 17.4859102 36.654016 25.9080628 46.2390961 27.5536146 39.2343307 34.2248213 41.0104347 43.4859102 32.2295654 39.1652242 23.6327117 43.4859102 25.0247517 34.2248213 18.2390961 27.5536146 27.8519883 25.9080628"></polygon>
            </g>
        </g>
    </g>
</svg>