<?xml version="1.0" encoding="UTF-8"?>
<svg width="64px" height="74px" viewBox="0 0 64 74" version="1.1" xmlns="http://www.w3.org/2000/svg" xmlns:xlink="http://www.w3.org/1999/xlink">
    <!-- Generator: Sketch 59.1 (86144) - https://sketch.com -->
    <title>icon_secure</title>
    <desc>Created with Sketch.</desc>
    <g id="Page-1" stroke="none" stroke-width="1" fill="none" fill-rule="evenodd">
        <g id="home_5-copy" transform="translate(-688.000000, -1218.000000)">
            <g id="Value-props" transform="translate(170.000000, 916.000000)">
                <g id="Group-13" transform="translate(58.000000, 301.000000)">
                    <g id="icon_secure" transform="translate(463.000000, 4.000000)">
                        <path d="M29,0 L43.9140137,0 C45.3794061,4.82293581 46.9368532,8.02067117 48.586355,9.5932061 C50.2358567,11.165741 53.4067516,12.4757201 58.0990395,13.5231433 C58.0990395,25.5735874 55.7429767,35.9285709 51.0308511,44.5880939 C47.889434,50.3611092 40.545817,57.8662034 29,67.1033764 C17.5202094,57.8662034 10.2096055,50.3611092 7.06818842,44.5880939 C2.35606281,35.9285709 0,25.5735874 0,13.5231433 C4.69228795,12.4757201 7.8631828,11.165741 9.51268454,9.5932061 C11.1621863,8.02067117 12.7196334,4.82293581 14.1850259,0 C14.9743599,0 16.3232529,0 18.2317051,0 C20.1401572,0 23.762602,0 29.0990395,0" id="Path" stroke="#631A72" stroke-width="5" fill="#631A72"></path>
                        <path d="M29.0034937,2.55168821 L42.8652847,2.55168821 C44.2272898,7.00782792 45.674855,9.96236766 47.20798,11.4153074 C48.7411051,12.8682472 51.688285,14.0785992 56.0495198,15.0463633 C56.0495198,26.1803415 53.8596834,35.7478031 49.4800106,43.7487482 C46.5602287,49.0827115 39.7347231,56.0170249 29.0034937,64.5516882 C18.3336324,56.0170249 11.5388108,49.0827115 8.61902896,43.7487482 C4.23935616,35.7478031 2.04951976,26.1803415 2.04951976,15.0463633 C6.41075449,14.0785992 9.3579344,12.8682472 10.8910595,11.4153074 C12.4241846,9.96236766 13.8717497,7.00782792 15.2337549,2.55168821 C15.9673993,2.55168821 17.2211244,2.55168821 18.9949302,2.55168821 C20.7687361,2.55168821 24.1356079,2.55168821 29.0955458,2.55168821" id="Path" stroke="#FFFFFF" stroke-width="2" opacity="0.716076079"></path>
                        <path d="M35,24 C36.1045695,24 37,24.8954305 37,26 L37,35 C37,36.1045695 36.1045695,37 35,37 L23,37 C21.8954305,37 21,36.1045695 21,35 L21,26 C21,24.8954305 21.8954305,24 23,24 L35,24 Z M29,28 C27.8954305,28 27,28.8928211 27,29.9941718 C27,30.6748311 27.3420111,31.2758422 27.8640311,31.6356749 L27.8640311,31.6356749 L27.5293175,34 L30.4865573,34 L30.1115914,31.6522157 C30.6473156,31.294435 31,30.6853703 31,29.9941718 C31,28.8928211 30.1045695,28 29,28 Z" id="Combined-Shape" fill="#FFFFFF"></path>
                        <path d="M24.2690109,21.8396554 C24.2690109,17.8396554 25.9356776,15.8396554 29.2690109,15.8396554 C32.6023442,15.8396554 34.2690109,17.8396554 34.2690109,21.8396554" id="Path-3" stroke="#FFFFFF" stroke-width="2"></path>
                        <rect id="Rectangle-Copy-4" fill="#C773DA" x="23" y="42" width="12" height="2" rx="1"></rect>
                        <rect id="Rectangle-Copy-5" fill="#C773DA" x="23" y="46" width="12" height="2" rx="1"></rect>
                    </g>
                </g>
            </g>
        </g>
    </g>
</svg>